<mxfile host="app.diagrams.net" agent="Mozilla/5.0 (Windows NT 10.0; Win64; x64) AppleWebKit/537.36 (KHTML, like Gecko) Chrome/137.0.0.0 Safari/537.36 OPR/121.0.0.0" version="28.2.3">
  <diagram name="Use Case - Library Management" id="nlO1qMhRAvV47Qm9x5gK">
    <mxGraphModel dx="2307" dy="2504" grid="1" gridSize="10" guides="1" tooltips="1" connect="1" arrows="1" fold="1" page="1" pageScale="1" pageWidth="827" pageHeight="1169" math="0" shadow="0">
      <root>
        <mxCell id="0" />
        <mxCell id="1" parent="0" />
        <mxCell id="J2EUPSjQTCNy60queKkw-1" value="Bibliotekarz" style="shape=umlActor;" parent="1" vertex="1">
          <mxGeometry x="20" y="200" width="40" height="80" as="geometry" />
        </mxCell>
        <mxCell id="J2EUPSjQTCNy60queKkw-2" value="Czytelnik" style="shape=umlActor;" parent="1" vertex="1">
          <mxGeometry x="1940" y="140" width="40" height="80" as="geometry" />
        </mxCell>
        <mxCell id="J2EUPSjQTCNy60queKkw-3" parent="1" source="J2EUPSjQTCNy60queKkw-1" target="J2EUPSjQTCNy60queKkw-27" edge="1">
          <mxGeometry relative="1" as="geometry" />
        </mxCell>
        <mxCell id="J2EUPSjQTCNy60queKkw-4" parent="1" source="J2EUPSjQTCNy60queKkw-1" target="J2EUPSjQTCNy60queKkw-26" edge="1">
          <mxGeometry relative="1" as="geometry" />
        </mxCell>
        <mxCell id="J2EUPSjQTCNy60queKkw-5" parent="1" source="J2EUPSjQTCNy60queKkw-1" target="J2EUPSjQTCNy60queKkw-21" edge="1">
          <mxGeometry relative="1" as="geometry" />
        </mxCell>
        <mxCell id="J2EUPSjQTCNy60queKkw-6" parent="1" source="J2EUPSjQTCNy60queKkw-1" target="J2EUPSjQTCNy60queKkw-22" edge="1">
          <mxGeometry relative="1" as="geometry" />
        </mxCell>
        <mxCell id="J2EUPSjQTCNy60queKkw-8" parent="1" source="J2EUPSjQTCNy60queKkw-1" target="J2EUPSjQTCNy60queKkw-29" edge="1">
          <mxGeometry relative="1" as="geometry" />
        </mxCell>
        <mxCell id="J2EUPSjQTCNy60queKkw-13" parent="1" source="J2EUPSjQTCNy60queKkw-2" target="J2EUPSjQTCNy60queKkw-20" edge="1">
          <mxGeometry relative="1" as="geometry" />
        </mxCell>
        <mxCell id="J2EUPSjQTCNy60queKkw-14" parent="1" source="J2EUPSjQTCNy60queKkw-2" target="J2EUPSjQTCNy60queKkw-19" edge="1">
          <mxGeometry relative="1" as="geometry" />
        </mxCell>
        <mxCell id="J2EUPSjQTCNy60queKkw-15" parent="1" source="J2EUPSjQTCNy60queKkw-2" target="J2EUPSjQTCNy60queKkw-18" edge="1">
          <mxGeometry relative="1" as="geometry" />
        </mxCell>
        <mxCell id="J2EUPSjQTCNy60queKkw-16" value="Admin" style="shape=umlActor;verticalLabelPosition=bottom;verticalAlign=top;html=1;outlineConnect=0;" parent="1" vertex="1">
          <mxGeometry x="880" y="-130" width="30" height="60" as="geometry" />
        </mxCell>
        <mxCell id="J2EUPSjQTCNy60queKkw-17" style="edgeStyle=orthogonalEdgeStyle;rounded=0;orthogonalLoop=1;jettySize=auto;html=1;exitX=0.25;exitY=0.1;exitDx=0;exitDy=0;exitPerimeter=0;entryX=0.431;entryY=0.256;entryDx=0;entryDy=0;entryPerimeter=0;" parent="1" source="J2EUPSjQTCNy60queKkw-2" target="J2EUPSjQTCNy60queKkw-2" edge="1">
          <mxGeometry relative="1" as="geometry" />
        </mxCell>
        <mxCell id="J2EUPSjQTCNy60queKkw-18" value="Sprawdź terminy zwrotów" style="ellipse;whiteSpace=wrap;html=1;" parent="1" vertex="1">
          <mxGeometry x="1660.0033333333333" y="377.60031746031746" width="99.23637259386987" height="97.60000000000001" as="geometry" />
        </mxCell>
        <mxCell id="J2EUPSjQTCNy60queKkw-19" value="Sprawdź wypożyczenia" style="ellipse;whiteSpace=wrap;html=1;" parent="1" vertex="1">
          <mxGeometry x="1530.0033333333336" y="377.60031746031746" width="99.23637259386987" height="97.60000000000001" as="geometry" />
        </mxCell>
        <mxCell id="J2EUPSjQTCNy60queKkw-20" value="Przeglądaj katalog" style="ellipse;whiteSpace=wrap;html=1;" parent="1" vertex="1">
          <mxGeometry x="827.0033333333331" y="400.00031746031755" width="99.23637259386987" height="97.60000000000001" as="geometry" />
        </mxCell>
        <mxCell id="J2EUPSjQTCNy60queKkw-21" value="Usuń książkę" style="ellipse;whiteSpace=wrap;html=1;" parent="1" vertex="1">
          <mxGeometry x="469.99999999999994" y="377.6" width="99.23637259386987" height="97.60000000000001" as="geometry" />
        </mxCell>
        <mxCell id="J2EUPSjQTCNy60queKkw-22" value="Wyszukaj książkę" style="ellipse;whiteSpace=wrap;html=1;" parent="1" vertex="1">
          <mxGeometry x="826.9999999999998" y="279.9974603174601" width="99.23637259386987" height="97.60000000000001" as="geometry" />
        </mxCell>
        <mxCell id="J2EUPSjQTCNy60queKkw-23" value="Wypożycz książkę" style="ellipse;whiteSpace=wrap;html=1;" parent="1" vertex="1">
          <mxGeometry x="1660.0066666666667" y="509.9974603174602" width="99.23637259386987" height="97.60000000000001" as="geometry" />
        </mxCell>
        <mxCell id="J2EUPSjQTCNy60queKkw-25" value="Generuj raporty" style="ellipse;whiteSpace=wrap;html=1;" parent="1" vertex="1">
          <mxGeometry x="1479.9966666666667" y="110.00031746031743" width="99.23637259386987" height="97.60000000000001" as="geometry" />
        </mxCell>
        <mxCell id="J2EUPSjQTCNy60queKkw-26" value="Edytuj książkę" style="ellipse;whiteSpace=wrap;html=1;" parent="1" vertex="1">
          <mxGeometry x="339.99999999999994" y="377.6" width="99.23637259386987" height="97.60000000000001" as="geometry" />
        </mxCell>
        <mxCell id="J2EUPSjQTCNy60queKkw-27" value="Dodaj książkę" style="ellipse;whiteSpace=wrap;html=1;fontStyle=1" parent="1" vertex="1">
          <mxGeometry x="209.99999999999994" y="377.6" width="99.23637259386987" height="97.60000000000001" as="geometry" />
        </mxCell>
        <mxCell id="J2EUPSjQTCNy60queKkw-28" value="Usuń czytelnika" style="ellipse;whiteSpace=wrap;html=1;" parent="1" vertex="1">
          <mxGeometry x="950.0033333333334" y="110.00031746031743" width="99.23637259386987" height="97.60000000000001" as="geometry" />
        </mxCell>
        <mxCell id="J2EUPSjQTCNy60queKkw-30" value="Dodaj czytelnika" style="ellipse;whiteSpace=wrap;html=1;" parent="1" vertex="1">
          <mxGeometry x="1210.0033333333333" y="110.00031746031749" width="99.23637259386987" height="97.60000000000001" as="geometry" />
        </mxCell>
        <mxCell id="J2EUPSjQTCNy60queKkw-31" value="Zaloguj" style="ellipse;whiteSpace=wrap;html=1;fontStyle=1" parent="1" vertex="1">
          <mxGeometry x="340" y="1150" width="99.23637259386987" height="97.60000000000001" as="geometry" />
        </mxCell>
        <mxCell id="J2EUPSjQTCNy60queKkw-33" value="frame" style="shape=umlFrame;whiteSpace=wrap;html=1;pointerEvents=0;" parent="1" vertex="1">
          <mxGeometry x="110" y="70" width="1750" height="1640" as="geometry" />
        </mxCell>
        <mxCell id="J2EUPSjQTCNy60queKkw-35" value="" style="endArrow=open;endFill=1;endSize=12;html=1;rounded=0;exitX=0.5;exitY=0.5;exitDx=0;exitDy=0;exitPerimeter=0;" parent="1" source="J2EUPSjQTCNy60queKkw-16" target="J2EUPSjQTCNy60queKkw-30" edge="1">
          <mxGeometry width="160" relative="1" as="geometry">
            <mxPoint x="480" y="470" as="sourcePoint" />
            <mxPoint x="640" y="470" as="targetPoint" />
          </mxGeometry>
        </mxCell>
        <mxCell id="J2EUPSjQTCNy60queKkw-36" value="" style="endArrow=open;endFill=1;endSize=12;html=1;rounded=0;exitX=0.5;exitY=0.5;exitDx=0;exitDy=0;exitPerimeter=0;" parent="1" source="J2EUPSjQTCNy60queKkw-16" target="J2EUPSjQTCNy60queKkw-29" edge="1">
          <mxGeometry width="160" relative="1" as="geometry">
            <mxPoint x="480" y="440" as="sourcePoint" />
            <mxPoint x="640" y="440" as="targetPoint" />
          </mxGeometry>
        </mxCell>
        <mxCell id="J2EUPSjQTCNy60queKkw-37" value="" style="endArrow=open;endFill=1;endSize=12;html=1;rounded=0;exitX=0.556;exitY=0.761;exitDx=0;exitDy=0;exitPerimeter=0;" parent="1" source="J2EUPSjQTCNy60queKkw-16" target="J2EUPSjQTCNy60queKkw-28" edge="1">
          <mxGeometry width="160" relative="1" as="geometry">
            <mxPoint x="480" y="410" as="sourcePoint" />
            <mxPoint x="640" y="410" as="targetPoint" />
          </mxGeometry>
        </mxCell>
        <mxCell id="J2EUPSjQTCNy60queKkw-38" value="Zarządzaj rolami" style="ellipse;whiteSpace=wrap;html=1;" parent="1" vertex="1">
          <mxGeometry x="1350" y="110" width="99.23637259386987" height="97.60000000000001" as="geometry" />
        </mxCell>
        <mxCell id="J2EUPSjQTCNy60queKkw-39" value="" style="endArrow=open;endFill=1;endSize=12;html=1;rounded=0;exitX=0.608;exitY=0.683;exitDx=0;exitDy=0;exitPerimeter=0;" parent="1" source="J2EUPSjQTCNy60queKkw-16" target="J2EUPSjQTCNy60queKkw-38" edge="1">
          <mxGeometry width="160" relative="1" as="geometry">
            <mxPoint x="480" y="410" as="sourcePoint" />
            <mxPoint x="640" y="410" as="targetPoint" />
          </mxGeometry>
        </mxCell>
        <mxCell id="J2EUPSjQTCNy60queKkw-40" value="" style="endArrow=open;endFill=1;endSize=12;html=1;rounded=0;exitX=0.423;exitY=0.709;exitDx=0;exitDy=0;exitPerimeter=0;" parent="1" source="J2EUPSjQTCNy60queKkw-1" target="J2EUPSjQTCNy60queKkw-20" edge="1">
          <mxGeometry width="160" relative="1" as="geometry">
            <mxPoint x="760" y="790" as="sourcePoint" />
            <mxPoint x="920" y="790" as="targetPoint" />
          </mxGeometry>
        </mxCell>
        <mxCell id="paaR12sqXpEB32dtuRe2-7" value="Zarejestruj się" style="ellipse;whiteSpace=wrap;html=1;fontStyle=1" vertex="1" parent="1">
          <mxGeometry x="222.62" y="1150" width="99.23637259386987" height="97.60000000000001" as="geometry" />
        </mxCell>
        <mxCell id="paaR12sqXpEB32dtuRe2-8" value="Zmień hasło" style="ellipse;whiteSpace=wrap;html=1;fontStyle=1" vertex="1" parent="1">
          <mxGeometry x="340" y="1290" width="99.23637259386987" height="97.60000000000001" as="geometry" />
        </mxCell>
        <mxCell id="paaR12sqXpEB32dtuRe2-12" value="Extends" style="endArrow=block;endSize=16;endFill=0;html=1;rounded=0;" edge="1" parent="1" source="paaR12sqXpEB32dtuRe2-8" target="J2EUPSjQTCNy60queKkw-31">
          <mxGeometry width="160" relative="1" as="geometry">
            <mxPoint x="1000" y="1012" as="sourcePoint" />
            <mxPoint x="1057" y="940" as="targetPoint" />
          </mxGeometry>
        </mxCell>
        <mxCell id="paaR12sqXpEB32dtuRe2-13" value="Gość" style="shape=umlActor;verticalLabelPosition=bottom;verticalAlign=top;html=1;" vertex="1" parent="1">
          <mxGeometry x="22.619999999999997" y="890" width="30" height="60" as="geometry" />
        </mxCell>
        <mxCell id="paaR12sqXpEB32dtuRe2-16" value="" edge="1" parent="1" source="J2EUPSjQTCNy60queKkw-1" target="J2EUPSjQTCNy60queKkw-29">
          <mxGeometry relative="1" as="geometry">
            <mxPoint x="60" y="239" as="sourcePoint" />
            <mxPoint x="1210" y="162" as="targetPoint" />
          </mxGeometry>
        </mxCell>
        <mxCell id="J2EUPSjQTCNy60queKkw-29" value="Edytuj czytelnika" style="ellipse;whiteSpace=wrap;html=1;" parent="1" vertex="1">
          <mxGeometry x="1080.0033333333333" y="110.00031746031738" width="99.23637259386987" height="97.60000000000001" as="geometry" />
        </mxCell>
        <mxCell id="paaR12sqXpEB32dtuRe2-23" value="" style="endArrow=open;endFill=1;endSize=12;html=1;rounded=0;exitX=0.5;exitY=0.5;exitDx=0;exitDy=0;exitPerimeter=0;" edge="1" parent="1" source="J2EUPSjQTCNy60queKkw-2" target="J2EUPSjQTCNy60queKkw-23">
          <mxGeometry width="160" relative="1" as="geometry">
            <mxPoint x="1320" y="700" as="sourcePoint" />
            <mxPoint x="1480" y="700" as="targetPoint" />
          </mxGeometry>
        </mxCell>
        <mxCell id="paaR12sqXpEB32dtuRe2-25" value="" style="endArrow=open;endFill=1;endSize=12;html=1;rounded=0;" edge="1" parent="1" source="J2EUPSjQTCNy60queKkw-16" target="J2EUPSjQTCNy60queKkw-25">
          <mxGeometry width="160" relative="1" as="geometry">
            <mxPoint x="1742.6100000000001" y="-530" as="sourcePoint" />
            <mxPoint x="1356.6100000000001" y="127" as="targetPoint" />
          </mxGeometry>
        </mxCell>
        <mxCell id="paaR12sqXpEB32dtuRe2-26" value="Raporty wyporzyczeń" style="ellipse;whiteSpace=wrap;html=1;" vertex="1" parent="1">
          <mxGeometry x="1680" y="110" width="99.23637259386987" height="97.60000000000001" as="geometry" />
        </mxCell>
        <mxCell id="paaR12sqXpEB32dtuRe2-27" value="Extends" style="endArrow=block;endSize=16;endFill=0;html=1;rounded=0;" edge="1" parent="1" source="paaR12sqXpEB32dtuRe2-26" target="J2EUPSjQTCNy60queKkw-25">
          <mxGeometry width="160" relative="1" as="geometry">
            <mxPoint x="1600" y="720" as="sourcePoint" />
            <mxPoint x="1760" y="720" as="targetPoint" />
          </mxGeometry>
        </mxCell>
        <mxCell id="paaR12sqXpEB32dtuRe2-28" style="exitX=0.5;exitY=0.5;exitDx=0;exitDy=0;exitPerimeter=0;" edge="1" parent="1" source="J2EUPSjQTCNy60queKkw-2" target="J2EUPSjQTCNy60queKkw-22">
          <mxGeometry relative="1" as="geometry">
            <mxPoint x="1949" y="59.460000000000036" as="sourcePoint" />
            <mxPoint x="1290" y="703.46" as="targetPoint" />
          </mxGeometry>
        </mxCell>
        <mxCell id="paaR12sqXpEB32dtuRe2-30" value="Sprawdź historię wypożyczeń" style="ellipse;whiteSpace=wrap;html=1;" vertex="1" parent="1">
          <mxGeometry x="210" y="510" width="99.23637259386987" height="97.60000000000001" as="geometry" />
        </mxCell>
        <mxCell id="paaR12sqXpEB32dtuRe2-31" style="exitX=0.5;exitY=0.5;exitDx=0;exitDy=0;exitPerimeter=0;" edge="1" parent="1" source="J2EUPSjQTCNy60queKkw-1" target="paaR12sqXpEB32dtuRe2-30">
          <mxGeometry relative="1" as="geometry">
            <mxPoint x="180" y="370" as="sourcePoint" />
            <mxPoint x="342" y="508" as="targetPoint" />
          </mxGeometry>
        </mxCell>
        <mxCell id="paaR12sqXpEB32dtuRe2-32" value="Sprawdź dostępność książki" style="ellipse;whiteSpace=wrap;html=1;" vertex="1" parent="1">
          <mxGeometry x="1110.77" y="510" width="99.23637259386987" height="97.60000000000001" as="geometry" />
        </mxCell>
        <mxCell id="paaR12sqXpEB32dtuRe2-34" value="Include" style="endArrow=block;endSize=16;endFill=0;html=1;rounded=0;" edge="1" parent="1" source="J2EUPSjQTCNy60queKkw-23" target="paaR12sqXpEB32dtuRe2-32">
          <mxGeometry width="160" relative="1" as="geometry">
            <mxPoint x="1680" y="750" as="sourcePoint" />
            <mxPoint x="1840" y="750" as="targetPoint" />
          </mxGeometry>
        </mxCell>
        <mxCell id="paaR12sqXpEB32dtuRe2-35" value="Zwróć książkę" style="ellipse;whiteSpace=wrap;html=1;" vertex="1" parent="1">
          <mxGeometry x="1660" y="650" width="99.23637259386987" height="97.60000000000001" as="geometry" />
        </mxCell>
        <mxCell id="paaR12sqXpEB32dtuRe2-36" value="Include" style="endArrow=block;endSize=16;endFill=0;html=1;rounded=0;" edge="1" parent="1" source="paaR12sqXpEB32dtuRe2-35" target="paaR12sqXpEB32dtuRe2-37">
          <mxGeometry width="160" relative="1" as="geometry">
            <mxPoint x="1629.24" y="770" as="sourcePoint" />
            <mxPoint x="1179.24" y="770" as="targetPoint" />
          </mxGeometry>
        </mxCell>
        <mxCell id="paaR12sqXpEB32dtuRe2-37" value="Zaktualizuj stan książki" style="ellipse;whiteSpace=wrap;html=1;" vertex="1" parent="1">
          <mxGeometry x="830" y="650" width="99.23637259386987" height="97.60000000000001" as="geometry" />
        </mxCell>
        <mxCell id="paaR12sqXpEB32dtuRe2-38" value="Include" style="endArrow=block;endSize=16;endFill=0;html=1;rounded=0;" edge="1" parent="1" source="J2EUPSjQTCNy60queKkw-21" target="paaR12sqXpEB32dtuRe2-37">
          <mxGeometry width="160" relative="1" as="geometry">
            <mxPoint x="861" y="648.33" as="sourcePoint" />
            <mxPoint x="130" y="648.33" as="targetPoint" />
          </mxGeometry>
        </mxCell>
        <mxCell id="paaR12sqXpEB32dtuRe2-39" value="Include" style="endArrow=block;endSize=16;endFill=0;html=1;rounded=0;" edge="1" parent="1" source="J2EUPSjQTCNy60queKkw-26" target="paaR12sqXpEB32dtuRe2-37">
          <mxGeometry width="160" relative="1" as="geometry">
            <mxPoint x="750" y="630" as="sourcePoint" />
            <mxPoint x="1031" y="843" as="targetPoint" />
          </mxGeometry>
        </mxCell>
        <mxCell id="paaR12sqXpEB32dtuRe2-40" value="Include" style="endArrow=block;endSize=16;endFill=0;html=1;rounded=0;" edge="1" parent="1" source="J2EUPSjQTCNy60queKkw-27" target="paaR12sqXpEB32dtuRe2-37">
          <mxGeometry width="160" relative="1" as="geometry">
            <mxPoint x="630" y="740" as="sourcePoint" />
            <mxPoint x="1033" y="965" as="targetPoint" />
          </mxGeometry>
        </mxCell>
        <mxCell id="paaR12sqXpEB32dtuRe2-41" value="" style="endArrow=open;endFill=1;endSize=12;html=1;rounded=0;exitX=0.5;exitY=0.5;exitDx=0;exitDy=0;exitPerimeter=0;" edge="1" parent="1" source="paaR12sqXpEB32dtuRe2-13" target="paaR12sqXpEB32dtuRe2-7">
          <mxGeometry width="160" relative="1" as="geometry">
            <mxPoint x="830" y="1090" as="sourcePoint" />
            <mxPoint x="990" y="1090" as="targetPoint" />
          </mxGeometry>
        </mxCell>
        <mxCell id="paaR12sqXpEB32dtuRe2-42" value="" style="endArrow=open;endFill=1;endSize=12;html=1;rounded=0;exitX=0.5;exitY=0.5;exitDx=0;exitDy=0;exitPerimeter=0;" edge="1" parent="1" source="paaR12sqXpEB32dtuRe2-13" target="J2EUPSjQTCNy60queKkw-31">
          <mxGeometry width="160" relative="1" as="geometry">
            <mxPoint x="830" y="1090" as="sourcePoint" />
            <mxPoint x="990" y="1090" as="targetPoint" />
          </mxGeometry>
        </mxCell>
        <mxCell id="paaR12sqXpEB32dtuRe2-43" value="Include" style="endArrow=block;endSize=16;endFill=0;html=1;rounded=0;" edge="1" parent="1" source="paaR12sqXpEB32dtuRe2-32" target="paaR12sqXpEB32dtuRe2-37">
          <mxGeometry width="160" relative="1" as="geometry">
            <mxPoint x="1800" y="550" as="sourcePoint" />
            <mxPoint x="1350" y="550" as="targetPoint" />
          </mxGeometry>
        </mxCell>
      </root>
    </mxGraphModel>
  </diagram>
</mxfile>
